<?xml version="1.0" encoding="UTF-8" standalone="no"?>
<svg
   xml:space="preserve"
   id="Layer_1"
   width="552.6"
   height="273.7"
   x="0"
   y="0"
   version="1.1"
   sodipodi:docname="Logo_CMYK.svg"
   inkscape:version="1.3.2 (091e20e, 2023-11-25, custom)"
   xmlns:inkscape="http://www.inkscape.org/namespaces/inkscape"
   xmlns:sodipodi="http://sodipodi.sourceforge.net/DTD/sodipodi-0.dtd"
   xmlns:xlink="http://www.w3.org/1999/xlink"
   xmlns="http://www.w3.org/2000/svg"
   xmlns:svg="http://www.w3.org/2000/svg"><sodipodi:namedview
   id="namedview1"
   pagecolor="#ffffff"
   bordercolor="#000000"
   borderopacity="0.25"
   inkscape:showpageshadow="2"
   inkscape:pageopacity="0.0"
   inkscape:pagecheckerboard="0"
   inkscape:deskcolor="#d1d1d1"
   inkscape:zoom="2.9442636"
   inkscape:cx="221.27774"
   inkscape:cy="195.12519"
   inkscape:window-width="2560"
   inkscape:window-height="1369"
   inkscape:window-x="-8"
   inkscape:window-y="1016"
   inkscape:window-maximized="1"
   inkscape:current-layer="Layer_1" />
       <defs
   id="defs1">
              <path
   id="rect1"
   d="M2.1-70.9h69v69h-69z"
   style="fill:none" />
       <linearGradient
   inkscape:collect="always"
   xlink:href="#SVGID_00000163777388526057327730000013865280206873994370_"
   id="linearGradient1"
   gradientUnits="userSpaceOnUse"
   gradientTransform="matrix(-0.1034,0.0111,0.0111,0.1034,351.4,554.2)"
   x1="2451.4"
   y1="-1181.7"
   x2="1674.6"
   y2="-2537" /></defs>
       <style
   id="style1"
   type="text/css">.st82{font-family:'Monoglyceride'}.st83{font-size:103.9866px}</style>
       <g
   id="g272"
   transform="translate(-25.64398,-258.33102)">
              <g
   id="g214"
   style="fill:#f4dec3;fill-opacity:1">
                     <path
   id="path110"
   d="m 103,486.7 c -0.4,-0.3 -0.7,-0.4 -1,-0.1 0,0 -3.5,6 -2.2,14.3 1.2,8 -6,14 -6,14 0,0 7.7,-5.5 6.9,-12.5 -0.9,-7 0.8,-13.3 2.3,-14.6 0,0 0.3,-0.8 0,-1 z"
   style="fill:#f4dec3;fill-opacity:1" />
                     <path
   id="path118"
   d="m 95.4,487.2 c -0.6,0.2 -0.6,0.4 -0.5,0.7 0,0 6.1,8.8 3.4,25.2 -2,12.4 -4,16.2 -4,16.2 0,0 11.1,-25.3 2,-41.7 0,0 -0.4,-0.5 -1,-0.4 z"
   style="fill:#f4dec3;fill-opacity:1" />
                     <path
   id="path126"
   d="m 99.9,489.5 c -0.4,0 -0.6,0.2 -0.7,0.6 0,0 1.2,18.7 -10.5,36 0,0 12.4,-16.3 12,-36 0,0 -0.1,-0.6 -0.8,-0.6 z"
   style="fill:#f4dec3;fill-opacity:1" />
                     <path
   id="path134"
   d="m 102.3,489.3 c -0.3,0 -0.5,0.5 -0.5,0.7 0,0 8.6,21.7 2.7,32 0,0 7.3,-10.8 -1.3,-32.5 0,0 -0.2,-0.4 -0.9,-0.2 z"
   style="fill:#f4dec3;fill-opacity:1" />
                     <path
   id="path142"
   d="m 97.8,484.8 c 0.3,0 0.7,0.2 0.7,0.5 0,0 1,23.3 10.4,30.3 0,0 -11,-7 -11.8,-30.2 0,0 0,-0.4 0.7,-0.6 z"
   style="fill:#f4dec3;fill-opacity:1" />
                     <path
   id="path150"
   d="m 106.3,485.8 c 0.2,0 0.7,0 0.8,0.4 0,0 -0.7,6.3 2.4,13 2.8,6 3.2,14.2 0.3,19.5 0,0 3.4,-9.5 -0.5,-17.7 -4,-8.7 -3.6,-14.7 -3.6,-14.7 0,0 0,-0.4 0.6,-0.5 z"
   style="fill:#f4dec3;fill-opacity:1" />
                     <path
   id="path158"
   d="m 103.8,485.8 c -0.4,0.1 -0.6,0.4 -0.5,0.6 0,0 4.6,9.8 9.8,23 0,0 -6.3,-19.1 -8.4,-23.5 0,0 -0.3,-0.3 -0.9,-0.1 z"
   style="fill:#f4dec3;fill-opacity:1" />
                     <path
   id="path166"
   d="m 93,490 c -0.4,0.1 -0.6,0.4 -0.6,0.6 0,0 5,19 1.2,26.2 0,0 3,-5.6 0.2,-26.3 0,0 -0.1,-0.6 -0.8,-0.5 z"
   style="fill:#f4dec3;fill-opacity:1" />
                     <path
   id="path174"
   d="m 101,488.2 c -0.3,0.1 -0.6,0.4 -0.6,0.6 0,0 5,19.1 1.3,26.3 0,0 3,-5.7 0.2,-26.4 0,0 -0.2,-0.7 -0.8,-0.5 z"
   style="fill:#f4dec3;fill-opacity:1" />
                     <path
   id="path182"
   d="m 99.9,484.6 c -0.4,0 -0.7,0.3 -0.7,0.5 0,0 5,19.1 1.3,26.3 0,0 3,-5.6 0.2,-26.4 0,0 -0.2,-0.6 -0.8,-0.4 z"
   style="fill:#f4dec3;fill-opacity:1" />
                     <path
   id="path190"
   d="m 103.8,488.1 c -0.4,0.2 -0.6,0.5 -0.5,0.7 0,0 8,18 5.6,25.7 0,0 2,-6 -4.3,-26 0,0 -0.2,-0.7 -0.8,-0.4 z"
   style="fill:#f4dec3;fill-opacity:1" />
                     <path
   id="path198"
   d="m 91.4,488.8 c -0.5,0 -0.8,0.5 -0.6,0.9 0,0 4.6,16.3 -4.7,23.2 0,0 9,-2.8 6,-23.6 0,0 0,-0.6 -0.7,-0.5 z"
   style="fill:#f4dec3;fill-opacity:1" />
                     <path
   id="path206"
   d="m 93.8,487.3 c -0.4,0 -0.8,0.5 -0.6,0.8 0,0 4.6,16.4 -4.7,23.2 0,0 9,-2.7 6,-23.5 0,0 0,-0.7 -0.7,-0.6 z"
   style="fill:#f4dec3;fill-opacity:1" />
                     <path
   id="path214"
   d="m 100.5,511.2 c -4.6,-7.8 -5.3,-20 -5.3,-20 0,0 0,-0.5 0.5,-0.7 0.5,-0.2 0.8,0.2 0.8,0.2 0,0 2.3,12.6 3.3,17.2 1,4.5 7.7,13.6 7.7,13.6 0,0 -2.4,-2.4 -7,-10.3 z"
   style="fill:#f4dec3;fill-opacity:1" />
              </g>
              <g
   id="g271">
                     <g
   id="g230">
                            <linearGradient
   id="SVGID_00000122702747213960521440000009854345156430342026_"
   x1="2651.3"
   x2="2011.2"
   y1="-1264.9"
   y2="-2279.5"
   gradientTransform="matrix(-0.1034,0.0111,0.0111,0.1034,351.4,554.2)"
   gradientUnits="userSpaceOnUse">
                                   <stop
   id="stop215"
   offset="0"
   style="stop-color:#ef4136" />
                                   <stop
   id="stop216"
   offset=".1"
   style="stop-color:#ed4a38" />
                                   <stop
   id="stop217"
   offset=".2"
   style="stop-color:#ea5e3d" />
                                   <stop
   id="stop218"
   offset=".3"
   style="stop-color:#e67a46" />
                                   <stop
   id="stop219"
   offset=".4"
   style="stop-color:#e19a54" />
                                   <stop
   id="stop220"
   offset=".5"
   style="stop-color:#d9c269" />
                                   <stop
   id="stop221"
   offset=".6"
   style="stop-color:#d2df78" />
                                   <stop
   id="stop222"
   offset="1"
   style="stop-color:#1d9676" />
                            </linearGradient>
                            <path
   id="path222"
   d="m 128.2,270.5 5.6,6.3 c 0,0 -24.8,63.5 -31,116.8 a 85.7,85.7 0 0 0 -2.3,33.2 c -0.4,-0.3 -0.7,-1 -0.8,-2 A 292,292 0 0 0 88.5,379.4 c 2.7,-18.3 39.7,-109 39.7,-109 z"
   style="fill:url(#SVGID_00000122702747213960521440000009854345156430342026_)" />
                            <linearGradient
   id="SVGID_00000167390197713260189790000014111876011752667056_"
   x1="2518"
   x2="1650.3"
   y1="-1554.5"
   y2="-2867.8"
   gradientTransform="matrix(-0.1034,0.0111,0.0111,0.1034,351.4,554.2)"
   gradientUnits="userSpaceOnUse">
                                   <stop
   id="stop223"
   offset="0"
   style="stop-color:#ef4136" />
                                   <stop
   id="stop224"
   offset=".1"
   style="stop-color:#ed4a38" />
                                   <stop
   id="stop225"
   offset=".2"
   style="stop-color:#ea5e3d" />
                                   <stop
   id="stop226"
   offset=".3"
   style="stop-color:#e67a46" />
                                   <stop
   id="stop227"
   offset=".4"
   style="stop-color:#e19a54" />
                                   <stop
   id="stop228"
   offset=".5"
   style="stop-color:#d9c269" />
                                   <stop
   id="stop229"
   offset=".6"
   style="stop-color:#d2df78" />
                                   <stop
   id="stop230"
   offset="1"
   style="stop-color:#1d9676" />
                            </linearGradient>
                            <path
   id="path230"
   d="m 139,287.2 c 0,0 -27.8,72.4 -36.1,106.4 6,-53.3 31,-116.8 31,-116.8 z"
   style="fill:url(#SVGID_00000167390197713260189790000014111876011752667056_)" />
                     </g>
                     <g
   id="g270">
                            <linearGradient
   id="SVGID_00000171719926472965368960000011025907488885300143_"
   x1="2717.3"
   x2="1640.4"
   y1="-933.70001"
   y2="-2812.7"
   gradientTransform="matrix(-0.1034,0.0111,0.0111,0.1034,351.4,554.2)"
   gradientUnits="userSpaceOnUse">
                                   <stop
   id="stop231"
   offset="0"
   style="stop-color:#ef4136" />
                                   <stop
   id="stop232"
   offset=".1"
   style="stop-color:#ed4a38" />
                                   <stop
   id="stop233"
   offset=".2"
   style="stop-color:#ea5e3d" />
                                   <stop
   id="stop234"
   offset=".3"
   style="stop-color:#e67a46" />
                                   <stop
   id="stop235"
   offset=".4"
   style="stop-color:#e19a54" />
                                   <stop
   id="stop236"
   offset=".5"
   style="stop-color:#d9c269" />
                                   <stop
   id="stop237"
   offset=".6"
   style="stop-color:#d2df78" />
                                   <stop
   id="stop238"
   offset="1"
   style="stop-color:#1d9676" />
                            </linearGradient>
                            <path
   id="path238"
   d="m 91.5,389 a 242,242 0 0 1 8.2,35.8 141,141 0 0 0 -4.3,-17 l -4,-18.7 z"
   style="fill:url(#SVGID_00000171719926472965368960000011025907488885300143_)" />
                            <linearGradient
   id="SVGID_00000106838285948084215350000015991016167398852022_"
   x1="2342.5"
   x2="2608.1001"
   y1="-1125.7"
   y2="-2420.6001"
   gradientTransform="matrix(-0.1034,0.01114,0.0111,0.10373,351.4,554.4)"
   gradientUnits="userSpaceOnUse"
   xlink:href="#SVGID_00000163777388526057327730000013865280206873994370_">
                                   <stop
   id="stop239"
   offset="0"
   style="stop-color:#ef4136" />
                                   <stop
   id="stop240"
   offset=".1"
   style="stop-color:#ed4a38" />
                                   <stop
   id="stop241"
   offset=".2"
   style="stop-color:#ea5e3d" />
                                   <stop
   id="stop242"
   offset=".3"
   style="stop-color:#e67a46" />
                                   <stop
   id="stop243"
   offset=".4"
   style="stop-color:#e19a54" />
                                   <stop
   id="stop244"
   offset=".5"
   style="stop-color:#d9c269" />
                                   <stop
   id="stop245"
   offset=".6"
   style="stop-color:#d2df78" />
                                   <stop
   id="stop246"
   offset="1"
   style="stop-color:#1d9676" />
                            </linearGradient>
                            <path
   id="path246"
   d="m 33.7,290.4 9.2,-11 c 0,0 39.800821,84.48156 53.700821,130.38156 l 4.578469,22.7622 c 0.88514,17.32617 3.02331,28.55552 7.72071,45.25624 3.3,8 -1.2,12.7 -7.4,14.2 -12,2.8 -13.7,-2.5 -14,-5.5 -0.3,-3 0.4,-6 0.1,-22.4 -0.3,-16.4 -4.6,-33.8 -10.8,-63 -6,-29.1 -43,-110.7 -43,-110.7 z"
   style="fill:url(#SVGID_00000106838285948084215350000015991016167398852022_);stroke-width:1.00159"
   sodipodi:nodetypes="ccccccssccc" />
                            <linearGradient
   id="SVGID_00000163777388526057327730000013865280206873994370_"
   x1="2451.3999"
   x2="1674.6"
   y1="-1181.7"
   y2="-2537"
   gradientTransform="matrix(-0.1034,0.0111,0.0111,0.1034,351.4,554.2)"
   gradientUnits="userSpaceOnUse">
                                   <stop
   id="stop247"
   offset="0"
   style="stop-color:#ef4136" />
                                   <stop
   id="stop248"
   offset=".1"
   style="stop-color:#ed4a38" />
                                   <stop
   id="stop249"
   offset=".2"
   style="stop-color:#ea5e3d" />
                                   <stop
   id="stop250"
   offset=".3"
   style="stop-color:#e67a46" />
                                   <stop
   id="stop251"
   offset=".4"
   style="stop-color:#e19a54" />
                                   <stop
   id="stop252"
   offset=".5"
   style="stop-color:#d9c269" />
                                   <stop
   id="stop253"
   offset=".6"
   style="stop-color:#d2df78" />
                                   <stop
   id="stop254"
   offset="1"
   style="stop-color:#1d9676" />
                            </linearGradient>
                            <path
   id="path254"
   d="m 99.8,425.6 -0.1,-0.9 z"
   style="fill:url(#linearGradient1)" />
                            <linearGradient
   id="SVGID_00000156546113123511044780000007356347820430644145_"
   x1="2487.2"
   x2="1708.2"
   y1="-1200.5"
   y2="-2559.6001"
   gradientTransform="matrix(-0.1034,0.0111,0.0111,0.1034,351.4,554.2)"
   gradientUnits="userSpaceOnUse">
                                   <stop
   id="stop255"
   offset="0"
   style="stop-color:#ef4136" />
                                   <stop
   id="stop256"
   offset=".1"
   style="stop-color:#ed4a38" />
                                   <stop
   id="stop257"
   offset=".2"
   style="stop-color:#ea5e3d" />
                                   <stop
   id="stop258"
   offset=".3"
   style="stop-color:#e67a46" />
                                   <stop
   id="stop259"
   offset=".4"
   style="stop-color:#e19a54" />
                                   <stop
   id="stop260"
   offset=".5"
   style="stop-color:#d9c269" />
                                   <stop
   id="stop261"
   offset=".6"
   style="stop-color:#d2df78" />
                                   <stop
   id="stop262"
   offset="1"
   style="stop-color:#1d9676" />
                            </linearGradient>
                            
                            <linearGradient
   id="SVGID_00000117648105611868572750000003885918513344467387_"
   x1="2869.7"
   x2="2277.2"
   y1="-1615.1"
   y2="-2662.8"
   gradientTransform="matrix(-0.1034,0.0111,0.0111,0.1034,351.4,554.2)"
   gradientUnits="userSpaceOnUse">
                                   <stop
   id="stop263"
   offset="0"
   style="stop-color:#ef4136" />
                                   <stop
   id="stop264"
   offset=".1"
   style="stop-color:#ed4a38" />
                                   <stop
   id="stop265"
   offset=".2"
   style="stop-color:#ea5e3d" />
                                   <stop
   id="stop266"
   offset=".3"
   style="stop-color:#e67a46" />
                                   <stop
   id="stop267"
   offset=".4"
   style="stop-color:#e19a54" />
                                   <stop
   id="stop268"
   offset=".5"
   style="stop-color:#d9c269" />
                                   <stop
   id="stop269"
   offset=".6"
   style="stop-color:#d2df78" />
                                   <stop
   id="stop270"
   offset="1"
   style="stop-color:#1d9676" />
                            </linearGradient>
                            <path
   id="path270"
   d="m 43,280.1 2.9,4.2 3.1,-3.3 39.4,98.8 0.1,-0.5 3,9.8 4,18.7 C 81.4,362 42.8,280 42.8,280 Z"
   style="fill:url(#SVGID_00000117648105611868572750000003885918513344467387_)" />
                     </g>
              </g>
       </g>
       <g
   id="g417"
   transform="translate(-25.455327,-258.1663)">
              <g
   id="g383"
   style="display:inline">
                     <path
   id="path279"
   d="m 84.6,497.4 c 0,-0.5 -0.3,-0.7 -0.7,-0.8 0,0 -6.5,2.5 -10.8,9.8 -4.2,7 -13.6,6.8 -13.6,6.8 0,0 9.5,0.8 13.3,-5.1 3.8,-6 9.1,-9.8 11.1,-9.9 0,0 0.7,-0.3 0.7,-0.8 z"
   style="fill:#f8e3c9;fill-opacity:1" />
                     <path
   id="path287"
   d="m 78.4,493 c -0.5,-0.3 -0.6,-0.1 -0.8,0.2 0,0 -0.9,10.6 -13.4,21.5 -9.6,8.3 -13.4,10 -13.4,10 0,0 24.7,-12.4 28.2,-30.9 0,0 -0.1,-0.7 -0.6,-0.9 z"
   style="fill:#f8e3c9;fill-opacity:1" />
                     <path
   id="path295"
   d="m 80.4,497.6 c -0.2,-0.2 -0.6,-0.2 -0.9,0 0,0 -11,15.2 -31,21 0,0 19.9,-4.6 32.2,-20 0,0 0.2,-0.6 -0.3,-1 z"
   style="fill:#f8e3c9;fill-opacity:1" />
                     <path
   id="path303"
   d="m 82.5,499 c -0.3,-0.2 -0.7,0 -0.8,0.2 0,0 -7.3,22.2 -18.3,26.4 0,0 12.4,-3.8 19.6,-26 0,0.1 0,-0.3 -0.5,-0.6 z"
   style="fill:#f8e3c9;fill-opacity:1" />
                     <path
   id="path311"
   d="m 81.8,492.6 c 0.3,0.2 0.4,0.7 0.3,0.9 0,0 -14.2,18.5 -11.3,30 0,0 -4,-12.4 10.1,-30.9 0,0 0.3,-0.3 0.9,0 z"
   style="fill:#f8e3c9;fill-opacity:1" />
                     <path
   id="path319"
   d="m 87.8,498.8 c 0.2,0.1 0.5,0.4 0.4,0.8 0,0 -4.7,4.5 -6.5,11.6 a 23,23 0 0 1 -12.2,15.2 c 0,0 8.7,-5.1 11,-14 2.2,-9.3 6.5,-13.4 6.5,-13.4 0,0 0.3,-0.3 0.8,0 z"
   style="fill:#f8e3c9;fill-opacity:1" />
                     <path
   id="path327"
   d="m 85.9,497.3 c -0.4,-0.2 -0.8,0 -0.9,0 0,0 -2.6,10.6 -7.1,24.1 0,0 7.4,-18.8 8.5,-23.5 0,0 0,-0.4 -0.5,-0.6 z"
   style="fill:#f8e3c9;fill-opacity:1" />
                     <path
   id="path335"
   d="m 74.8,493.6 c -0.3,-0.2 -0.7,-0.2 -0.8,0 0,0 -8.4,18 -15.8,21 0,0 5.9,-2.4 17,-20.2 0,0 0.2,-0.5 -0.4,-0.8 z"
   style="fill:#f8e3c9;fill-opacity:1" />
                     <path
   id="path343"
   d="m 82.2,497.4 c -0.4,-0.2 -0.7,-0.2 -0.9,0 0,0 -8.3,18 -15.8,21 0,0 6,-2.4 17,-20.2 0,0 0.3,-0.6 -0.3,-0.8 z"
   style="fill:#f8e3c9;fill-opacity:1" />
                     <path
   id="path351"
   d="m 83.6,493.7 h -0.9 c 0,0 -8.3,18 -15.8,21.1 0,0 6,-2.4 17,-20.2 0,0 0.3,-0.6 -0.3,-0.9 z"
   style="fill:#f8e3c9;fill-opacity:1" />
                     <path
   id="path359"
   d="m 84.3,499 c -0.4,-0.1 -0.7,0 -0.8,0.2 0,0 -5.2,19 -12,23.3 0,0 5.4,-3.3 13.3,-22.7 0,0 0.2,-0.6 -0.5,-0.8 z"
   style="fill:#f8e3c9;fill-opacity:1" />
                     <path
   id="path367"
   d="m 74.4,491.6 c -0.4,-0.2 -1,0 -1,0.3 0,0 -7,15.5 -18.5,14.9 0,0 8.6,3.5 19.7,-14.3 0,0 0.4,-0.6 -0.2,-0.9 z"
   style="fill:#f8e3c9;fill-opacity:1" />
                     <path
   id="path375"
   d="m 77.2,492 c -0.4,-0.2 -1,-0.1 -1,0.3 0,0 -7,15.5 -18.5,14.8 0,0 8.7,3.6 19.7,-14.2 0,0 0.4,-0.6 -0.2,-1 z"
   style="fill:#f8e3c9;fill-opacity:1" />
                     <path
   id="path383"
   d="m 67,514.7 c 1.6,-9 8.7,-18.8 8.7,-18.8 0,0 0.3,-0.4 0.8,-0.2 0.6,0.1 0.5,0.6 0.5,0.6 l -8.4,15.4 c -2.1,4 -2.7,15.4 -2.7,15.4 0,0 -0.3,-3.4 1.2,-12.4 z"
   style="fill:#f8e3c9;fill-opacity:1" />
              </g>
              <g
   id="g416"
   transform="translate(0.36024633,-0.12008211)">
                     <g
   id="g399">
                            <linearGradient
   id="SVGID_00000023990921702556111190000013750325277520488332_"
   x1="2604.553"
   x2="2228"
   y1="-663.18597"
   y2="-1651"
   gradientTransform="matrix(-0.1089,-0.00839,-0.0084,0.10875,349.7,551.2)"
   gradientUnits="userSpaceOnUse">
                                   <stop
   id="stop384"
   offset="0"
   style="stop-color:#ef4136" />
                                   <stop
   id="stop385"
   offset=".1"
   style="stop-color:#ed4a38" />
                                   <stop
   id="stop386"
   offset=".2"
   style="stop-color:#ea5e3d" />
                                   <stop
   id="stop387"
   offset=".3"
   style="stop-color:#e67a46" />
                                   <stop
   id="stop388"
   offset=".4"
   style="stop-color:#e19a54" />
                                   <stop
   id="stop389"
   offset=".5"
   style="stop-color:#d9c269" />
                                   <stop
   id="stop390"
   offset=".6"
   style="stop-color:#d2df78" />
                                   <stop
   id="stop391"
   offset="1"
   style="stop-color:#1d9676" />
                            </linearGradient>
                            <path
   id="path391"
   d="m 123.2,259.7 c -1.2,6.6 -5.5,30.8 -5.4,39.9 0,10.5 5.5,42.5 9,61.7 2.8,15.2 -0.6,42.1 -5.4,63 -2.1,5.9 -4.7,12 -7.8,17.5 0,0 -9.6,17.3 -10.7,29.9 -3.9,9.8 -6.5,17.8 -7.3,20.7 -2,7.6 -8.8,9.6 -16.6,5.6 -6.3,-3.4 -7.7,-6.6 -5.6,-11.7 2,-5.1 12,-21.6 22,-40.5 10,-19 14.5,-26.4 17.1,-58.5 2.7,-32 -7.4,-80.1 -4.9,-95.5 2.5,-15.4 6,-31.6 6,-31.6 z"
   style="fill:url(#SVGID_00000023990921702556111190000013750325277520488332_);stroke-width:0.999298" />
                            <linearGradient
   id="SVGID_00000152259318254528512930000007466955462786038968_"
   x1="2933.7"
   x2="2727.6001"
   y1="-289.29999"
   y2="-832.20001"
   gradientTransform="matrix(-0.0966847,-0.05097606,-0.05097606,0.0966847,360.92693,547.21694)"
   gradientUnits="userSpaceOnUse">
                                   <stop
   id="stop392"
   offset="0"
   style="stop-color:#ef4136" />
                                   <stop
   id="stop393"
   offset=".1"
   style="stop-color:#ed4a38" />
                                   <stop
   id="stop394"
   offset=".2"
   style="stop-color:#ea5e3d" />
                                   <stop
   id="stop395"
   offset=".3"
   style="stop-color:#e67a46" />
                                   <stop
   id="stop396"
   offset=".4"
   style="stop-color:#e19a54" />
                                   <stop
   id="stop397"
   offset=".5"
   style="stop-color:#d9c269" />
                                   <stop
   id="stop398"
   offset=".6"
   style="stop-color:#d2df78" />
                                   <stop
   id="stop399"
   offset="1"
   style="stop-color:#1d9676" />
                            </linearGradient>
                            <path
   id="path399"
   d="m 117.8,299.3 c 0,-9 4.2,-33.3 5.4,-39.9 v 3.7 l 8.8,-0.3 c 0,0 -1.5,4.1 -6,22.2 -4.6,18 5,61 5,77.7 -0.1,16.7 -2.5,36.6 -2.5,36.6 0,0 -2.4,11.8 -7.1,25 4.8,-21 8.2,-48 5.4,-63.1 a 583,583 0 0 1 -9,-61.9 z"
   style="fill:url(#SVGID_00000152259318254528512930000007466955462786038968_)" />
                     </g>
                     <g
   id="g415">
                            <linearGradient
   id="SVGID_00000170248482839406396100000015114379566297771197_"
   x1="2537.7"
   x2="2150.7"
   y1="333.5"
   y2="-923.09998"
   gradientTransform="matrix(-0.0966847,-0.05097606,-0.05097606,0.0966847,360.92693,547.21694)"
   gradientUnits="userSpaceOnUse"
   spreadMethod="pad">
                                   <stop
   id="stop400"
   offset="0"
   style="stop-color:#ef4136" />
                                   <stop
   id="stop401"
   offset=".1"
   style="stop-color:#ed4a38" />
                                   <stop
   id="stop402"
   offset=".2"
   style="stop-color:#ea5e3d" />
                                   <stop
   id="stop403"
   offset=".3"
   style="stop-color:#e67a46" />
                                   <stop
   id="stop404"
   offset=".4"
   style="stop-color:#e19a54" />
                                   <stop
   id="stop405"
   offset=".5"
   style="stop-color:#d9c269" />
                                   <stop
   id="stop406"
   offset=".6"
   style="stop-color:#d2df78" />
                                   <stop
   id="stop407"
   offset="1"
   style="stop-color:#1d9676" />
                            </linearGradient>
                            <path
   id="path407"
   d="m 128.5,399.3 c 24.7,-18.7 75.4,-83.2 75.4,-83.2 0,0 0.5,10.8 3.1,12.8 0,0 -30.5,43.6 -50.6,67 -10.8,11.1 -20.4,21 -26.2,27.2 -11.3,12 -22.69822,32.53018 -28.99822,48.33018 1.90164,-10.51797 7.21455,-20.4828 12.39822,-29.83018 10,-17.6 14.9,-42.3 14.9,-42.3 z"
   style="fill:url(#SVGID_00000170248482839406396100000015114379566297771197_);fill-rule:nonzero"
   sodipodi:nodetypes="cccccccc" />
                            <linearGradient
   id="SVGID_00000141422898990475906100000016520251249776278162_"
   x1="2453.2"
   x2="2046.1"
   y1="-6.5999999"
   y2="-1328.4"
   gradientTransform="matrix(-0.0966847,-0.05097606,-0.05097606,0.0966847,360.92693,547.21694)"
   gradientUnits="userSpaceOnUse">
                                   <stop
   id="stop408"
   offset="0"
   style="stop-color:#ef4136" />
                                   <stop
   id="stop409"
   offset=".1"
   style="stop-color:#ed4a38" />
                                   <stop
   id="stop410"
   offset=".2"
   style="stop-color:#ea5e3d" />
                                   <stop
   id="stop411"
   offset=".3"
   style="stop-color:#e67a46" />
                                   <stop
   id="stop412"
   offset=".4"
   style="stop-color:#e19a54" />
                                   <stop
   id="stop413"
   offset=".5"
   style="stop-color:#d9c269" />
                                   <stop
   id="stop414"
   offset=".6"
   style="stop-color:#d2df78" />
                                   <stop
   id="stop415"
   offset="1"
   style="stop-color:#1d9676" />
                            </linearGradient>
                            <path
   id="path415"
   d="m 215.6,330.3 c -7.4,11.7 -36,41.6 -59.2,65.6 20,-23.4 50.6,-67 50.6,-67 2.7,2 8.6,1.4 8.6,1.4 z"
   style="fill:url(#SVGID_00000141422898990475906100000016520251249776278162_)" />
                     </g>
              </g>
       </g>
       <g
   id="g566"
   transform="translate(-24.29219,-257.47376)">
              <g
   id="g528">
                     <path
   id="path424"
   d="m 63.8,481.3 c 0,-0.5 -0.3,-0.7 -0.7,-0.8 0,0 -6.2,2.5 -10.4,9.4 -4,6.7 -13,6.6 -13,6.6 0,0 9.2,0.8 12.8,-5 3.6,-5.6 8.8,-9.3 10.7,-9.4 0,0 0.7,-0.3 0.6,-0.8 z"
   style="fill:#f4dec3;fill-opacity:1" />
                     <path
   id="path432"
   d="m 57.9,477 c -0.5,-0.2 -0.6,0 -0.8,0.3 0,0 -0.8,10.2 -13,20.7 -9,7.9 -12.7,9.6 -12.7,9.6 0,0 23.7,-12 27,-29.7 0,0 0,-0.7 -0.5,-0.9 z"
   style="fill:#f4dec3;fill-opacity:1" />
                     <path
   id="path440"
   d="m 66.1,482.7 c -0.3,0 -0.6,0.1 -0.7,0.5 0,0 -0.4,18 -13,33.6 0,0 13.1,-14.6 14.4,-33.5 0,0 0,-0.6 -0.7,-0.6 z"
   style="fill:#f4dec3;fill-opacity:1" />
                     <path
   id="path448"
   d="m 61.8,482.8 c -0.3,-0.1 -0.7,0 -0.8,0.2 0,0 -7,21.3 -17.6,25.3 0,0 12,-3.5 18.9,-24.8 0,0 0,-0.4 -0.5,-0.7 z"
   style="fill:#f4dec3;fill-opacity:1" />
                     <path
   id="path456"
   d="m 61.1,476.7 c 0.3,0.2 0.4,0.6 0.3,0.8 0,0 -13.6,17.8 -10.9,28.9 0,0 -3.8,-11.9 9.7,-29.7 0,0 0.4,-0.3 1,0 z"
   style="fill:#f4dec3;fill-opacity:1" />
                     <path
   id="path464"
   d="m 66.9,482.6 c 0.2,0.2 0.4,0.5 0.3,0.8 0,0 -4.4,4.3 -6.2,11.2 a 22.7,22.7 0 0 1 -11.7,14.6 c 0,0 8.3,-5 10.5,-13.5 2.3,-8.9 6.3,-13 6.3,-13 0,0 0.3,-0.3 0.8,0 z"
   style="fill:#f4dec3;fill-opacity:1" />
                     <path
   id="path472"
   d="m 65,481.1 c -0.4,-0.1 -0.7,0 -0.7,0.2 0,0 -2.6,10.1 -7,23 0,0 7.2,-18 8.3,-22.6 0,0 0,-0.3 -0.5,-0.6 z"
   style="fill:#f4dec3;fill-opacity:1" />
                     <path
   id="path480"
   d="m 54.4,477.6 c -0.3,-0.1 -0.7,-0.1 -0.8,0 0,0 -8,17.3 -15.2,20.3 0,0 5.7,-2.3 16.3,-19.4 0,0 0.3,-0.6 -0.3,-0.9 z"
   style="fill:#f4dec3;fill-opacity:1" />
                     <path
   id="path488"
   d="m 61.5,481.2 c -0.3,-0.1 -0.7,0 -0.8,0.1 0,0 -8,17.2 -15.2,20.2 0,0 5.7,-2.3 16.3,-19.4 0,0 0.3,-0.6 -0.3,-0.9 z"
   style="fill:#f4dec3;fill-opacity:1" />
                     <path
   id="path496"
   d="m 62.8,477.8 c -0.3,-0.2 -0.7,-0.2 -0.8,0 0,0 -8,17.2 -15.2,20.2 0,0 5.7,-2.3 16.3,-19.4 0,0 0.3,-0.6 -0.3,-0.8 z"
   style="fill:#f4dec3;fill-opacity:1" />
                     <path
   id="path504"
   d="m 63.5,482.8 c -0.3,0 -0.6,0 -0.7,0.2 0,0 -5,18.3 -11.6,22.5 0,0 5.2,-3.3 12.8,-22 0,0 0.2,-0.5 -0.5,-0.7 z"
   style="fill:#f4dec3;fill-opacity:1" />
                     <path
   id="path512"
   d="m 62.2,480.6 c -0.3,0 -0.9,0.1 -1,0.5 0,0 -9.8,12.5 -20,14.8 0,0 7,0.5 21,-14.7 0,0 0.4,-0.5 0,-0.6 z"
   style="fill:#f4dec3;fill-opacity:1" />
                     <path
   id="path520"
   d="m 56.7,476.1 c -0.4,-0.2 -1,-0.1 -1,0.3 0,0 -6.6,14.9 -17.7,14.2 0,0 8.3,3.5 19,-13.6 0,0 0.3,-0.6 -0.3,-0.9 z"
   style="fill:#f4dec3;fill-opacity:1" />
                     <path
   id="path528"
   d="m 47,498 c 1.4,-8.7 8.3,-18.2 8.3,-18.2 0,0 0.3,-0.3 0.8,-0.2 0.5,0.2 0.5,0.6 0.5,0.6 L 48.5,495 c -2.1,4 -2.7,14.8 -2.7,14.8 0,0 -0.3,-3.3 1.2,-11.9 z"
   style="fill:#f4dec3;fill-opacity:1" />
              </g>
              <g
   id="g565"
   style="display:inline">
                     <linearGradient
   id="SVGID_00000093862411404216782750000012965442804337447100_"
   x1="2733.2"
   x2="1998.8"
   y1="-721"
   y2="-1445.3"
   gradientTransform="matrix(-0.10887816,-0.00837772,-0.00837772,0.10887816,348.82247,549.80336)"
   gradientUnits="userSpaceOnUse">
                            <stop
   id="stop550"
   offset="0"
   style="stop-color:#ef4136" />
                            <stop
   id="stop551"
   offset=".1"
   style="stop-color:#ed4a38" />
                            <stop
   id="stop552"
   offset=".2"
   style="stop-color:#ea5e3d" />
                            <stop
   id="stop553"
   offset=".3"
   style="stop-color:#e67a46" />
                            <stop
   id="stop554"
   offset=".4"
   style="stop-color:#e19a54" />
                            <stop
   id="stop555"
   offset=".5"
   style="stop-color:#d9c269" />
                            <stop
   id="stop556"
   offset=".6"
   style="stop-color:#d2df78" />
                            <stop
   id="stop557"
   offset="1"
   style="stop-color:#1d9676" />
                     </linearGradient>
                     <path
   id="path557"
   d="m 55.2,470.4 c 5.8,-4.7 29.2,-40.8 42.3,-58.1 1,-1.3 1.9,-2.7 2.7,-4.2 11.7,-14.6 24.1,-21 24.1,-21 38.8,-16.4 59.3,-87.1 59.3,-87.1 0,0 -9.3,66.2 -38.2,93 a 41,41 0 0 1 -4,2.8 c -23.6,14 -50.5,44.6 -60.1,59.7 -9.6,15 -7,18.9 -9.7,25.3 -2.7,6.4 -7,5.3 -13.6,1.1 -6.7,-4.1 -7.2,-8 -2.8,-11.5 z"
   style="fill:url(#SVGID_00000093862411404216782750000012965442804337447100_)" />
                     <path
   id="polygon549"
   d="m 190.6,300 2.3,-7.4 3.8,8.7 z"
   style="fill:url(#SVGID_00000089548984458369652000000011778607783326381462_)" />
                     <linearGradient
   id="SVGID_00000112591550230358918380000006054371043033909676_"
   x1="2186"
   x2="1607.6"
   y1="-1113"
   y2="-1970.6"
   gradientTransform="matrix(-0.1089,-0.00846,-0.0084,0.10969,344.6,550)"
   gradientUnits="userSpaceOnUse">
                            <stop
   id="stop558"
   offset="0"
   style="stop-color:#ef4136" />
                            <stop
   id="stop559"
   offset=".1"
   style="stop-color:#ed4a38" />
                            <stop
   id="stop560"
   offset=".2"
   style="stop-color:#ea5e3d" />
                            <stop
   id="stop561"
   offset=".3"
   style="stop-color:#e67a46" />
                            <stop
   id="stop562"
   offset=".4"
   style="stop-color:#e19a54" />
                            <stop
   id="stop563"
   offset=".5"
   style="stop-color:#d9c269" />
                            <stop
   id="stop564"
   offset=".6"
   style="stop-color:#d2df78" />
                            <stop
   id="stop565"
   offset="1"
   style="stop-color:#1d9676" />
                     </linearGradient>
                     <path
   id="path565"
   d="m 190.6,299.3 6,1.4 c -7.3,29 -29.1,75.3 -51.2,92.4 29,-27.1 38.2,-93.8 38.2,-93.8 z"
   style="fill:url(#SVGID_00000112591550230358918380000006054371043033909676_);stroke-width:1.00362" />
                     <g
   id="g542">
                            <linearGradient
   id="SVGID_00000163790544797771824580000005575273106753721733_"
   x1="2347"
   x2="2102.3"
   y1="-808.09998"
   y2="-1918"
   gradientTransform="matrix(-0.1089,-0.0084,-0.0084,0.1089,344.6,549)"
   gradientUnits="userSpaceOnUse">
                                   <stop
   id="stop529"
   offset="0"
   style="stop-color:#f0f8f1" />
                                   <stop
   id="stop530"
   offset=".1"
   style="stop-color:#eef6eb" />
                                   <stop
   id="stop531"
   offset=".2"
   style="stop-color:#eaf2d9" />
                                   <stop
   id="stop532"
   offset=".3"
   style="stop-color:#e3ecbd" />
                                   <stop
   id="stop533"
   offset=".5"
   style="stop-color:#d9e496" />
                                   <stop
   id="stop534"
   offset=".6"
   style="stop-color:#d2df78" />
                                   <stop
   id="stop535"
   offset="1"
   style="stop-color:#1d9676" />
                            </linearGradient>
                            <path
   id="path535"
   d="m 120,332.9 c 6.6,-28.1 15.6,-63 15.6,-63 l 8.6,2 c 0,0 -27.2,95.6 -19.8,115.3 0,0 -12.5,6.3 -24.2,20.9 10.8,-18.2 13.8,-49.2 19.9,-75.2 z"
   style="fill:url(#SVGID_00000163790544797771824580000005575273106753721733_)" />
                            <linearGradient
   id="SVGID_00000142894661397375058820000011177801065885302202_"
   x1="2509.1001"
   x2="2096.6001"
   y1="-1165"
   y2="-1823.9"
   gradientTransform="matrix(-0.11065,-0.0084,-0.00853,0.1089,347.7,549)"
   gradientUnits="userSpaceOnUse">
                                   <stop
   id="stop536"
   offset="0"
   style="stop-color:#f0f8f1" />
                                   <stop
   id="stop537"
   offset=".1"
   style="stop-color:#eef6eb" />
                                   <stop
   id="stop538"
   offset=".2"
   style="stop-color:#eaf2d9" />
                                   <stop
   id="stop539"
   offset=".3"
   style="stop-color:#e3ecbd" />
                                   <stop
   id="stop540"
   offset=".5"
   style="stop-color:#d9e496" />
                                   <stop
   id="stop541"
   offset=".6"
   style="stop-color:#d2df78" />
                                   <stop
   id="stop542"
   offset="1"
   style="stop-color:#1d9676" />
                            </linearGradient>
                            <path
   id="path542"
   d="m 144,272 1,-2.2 h 9.7 c -2.7,9.8 -22.2,83.2 -27,97.5 -4.9,14.3 -3.8,19.9 -3.8,19.9 C 116.4,367.5 144,272 144,272 Z"
   style="fill:url(#SVGID_00000142894661397375058820000011177801065885302202_);stroke-width:1.00799" />
                     </g>
              </g>
       </g>
       <g
   id="g719"
   transform="translate(-26.875989,-257.96271)">
              <g
   id="g677">
                     <path
   id="path573"
   d="m 112.5,492.2 c 0.3,-0.4 0.6,-0.4 1,-0.2 0,0 3.2,5.9 2,13.9 -1.2,7.7 5.9,13.4 5.9,13.4 0,0 -7.5,-5.3 -6.7,-12 0.8,-6.7 -0.8,-12.8 -2.3,-14.1 0,0 -0.3,-0.7 0,-1 z"
   style="fill:#f4dec3;fill-opacity:1" />
                     <path
   id="path581"
   d="m 119.7,492.6 c 0.6,0.2 0.5,0.4 0.5,0.7 0,0 -5.8,8.4 -3.2,24.2 2,12 3.8,15.6 3.8,15.6 0,0 -10.7,-24.3 -2,-40.2 0,0 0.5,-0.4 1,-0.3 z"
   style="fill:#f4dec3;fill-opacity:1" />
                     <path
   id="path589"
   d="m 109.8,491.8 c 0.3,0.2 0.4,0.5 0.2,0.8 0,0 -11.1,14.2 -11.3,34.3 0,0 -0.9,-19.6 10.2,-35.1 0,0 0.4,-0.4 0.9,0 z"
   style="fill:#f4dec3;fill-opacity:1" />
                     <path
   id="path597"
   d="m 113,494.6 c 0.4,0.1 0.6,0.5 0.5,0.7 0,0 -8.2,20.9 -2.5,30.7 0,0 -7,-10.3 1.2,-31.1 0,0 0.3,-0.4 0.8,-0.3 z"
   style="fill:#f4dec3;fill-opacity:1" />
                     <path
   id="path605"
   d="m 117.4,490.4 c -0.3,-0.1 -0.6,0.2 -0.7,0.4 0,0 -0.8,22.4 -10,29.2 0,0 10.6,-6.7 11.4,-29 0,0 0,-0.5 -0.7,-0.6 z"
   style="fill:#f4dec3;fill-opacity:1" />
                     <path
   id="path613"
   d="m 109.2,491.3 c -0.2,0 -0.6,0 -0.8,0.4 0,0 0.7,6 -2.2,12.5 -2.7,5.8 -3,13.6 -0.3,18.7 0,0 -3.3,-9 0.4,-17 4,-8.4 3.4,-14.1 3.4,-14.1 0,0 0,-0.4 -0.5,-0.5 z"
   style="fill:#f4dec3;fill-opacity:1" />
                     <path
   id="path621"
   d="m 111.6,491.3 c 0.4,0.1 0.6,0.4 0.5,0.6 0,0 -4.4,9.4 -9.4,22.2 0,0 6,-18.5 8.1,-22.7 0,0 0.3,-0.3 0.8,-0.1 z"
   style="fill:#f4dec3;fill-opacity:1" />
                     <path
   id="path629"
   d="m 122,495.3 c 0.4,0.1 0.6,0.3 0.6,0.6 0,0 -4.7,18.4 -1.1,25.2 0,0 -3,-5.4 -0.2,-25.3 0,0 0.1,-0.7 0.7,-0.5 z"
   style="fill:#f4dec3;fill-opacity:1" />
                     <path
   id="path637"
   d="m 114.3,493.6 c 0.3,0.1 0.6,0.4 0.6,0.6 0,0 -4.8,18.4 -1.2,25.2 0,0 -2.9,-5.4 -0.2,-25.4 0,0 0.1,-0.5 0.8,-0.4 z"
   style="fill:#f4dec3;fill-opacity:1" />
                     <path
   id="path645"
   d="m 115.4,490 c 0.4,0.2 0.7,0.4 0.7,0.6 0,0 -4.8,18.4 -1.2,25.3 0,0 -2.9,-5.4 -0.2,-25.4 0,0 0.1,-0.6 0.7,-0.4 z"
   style="fill:#f4dec3;fill-opacity:1" />
                     <path
   id="path653"
   d="m 111.7,493.5 c 0.3,0.2 0.5,0.4 0.5,0.7 0,0 -7.8,17.3 -5.3,24.7 0,0 -2,-5.8 4,-25 0,0 0.2,-0.6 0.8,-0.4 z"
   style="fill:#f4dec3;fill-opacity:1" />
                     <path
   id="path661"
   d="m 114.2,492.6 c 0.2,0.2 0.5,0.7 0.4,1 0,0 -0.4,16 6,24.1 0,0 -5.7,-4 -6.8,-24.6 0,0 0,-0.7 0.3,-0.5 z"
   style="fill:#f4dec3;fill-opacity:1" />
                     <path
   id="path669"
   d="m 121.2,492.7 c 0.5,0 0.8,0.5 0.6,0.8 0,0 -4.3,15.7 4.6,22.3 0,0 -8.6,-2.6 -5.9,-22.6 0,0 0.1,-0.6 0.7,-0.5 z"
   style="fill:#f4dec3;fill-opacity:1" />
                     <path
   id="path677"
   d="m 114.9,515.7 a 52,52 0 0 0 5,-19.3 c 0,0 0,-0.4 -0.4,-0.6 a 0.7,0.7 0 0 0 -0.8,0.2 l -3.1,16.5 a 53.3,53.3 0 0 1 -7.4,13.1 c 0,0 2.3,-2.3 6.7,-9.9 z"
   style="fill:#f4dec3;fill-opacity:1" />
              </g>
              <g
   id="g718">
                     <g
   id="g693">
                            <linearGradient
   id="SVGID_00000015324726814626930860000014605419683764647329_"
   x1="-2891.2"
   x2="-3135.8"
   y1="536.40002"
   y2="-572.70001"
   gradientTransform="matrix(0.0894,0.0628,-0.0628,0.0894,406.8,571)"
   gradientUnits="userSpaceOnUse">
                                   <stop
   id="stop678"
   offset="0"
   style="stop-color:#ef4136" />
                                   <stop
   id="stop679"
   offset=".1"
   style="stop-color:#ed4a38" />
                                   <stop
   id="stop680"
   offset=".2"
   style="stop-color:#ea5e3d" />
                                   <stop
   id="stop681"
   offset=".3"
   style="stop-color:#e67a46" />
                                   <stop
   id="stop682"
   offset=".4"
   style="stop-color:#e19a54" />
                                   <stop
   id="stop683"
   offset=".5"
   style="stop-color:#d9c269" />
                                   <stop
   id="stop684"
   offset=".6"
   style="stop-color:#d2df78" />
                                   <stop
   id="stop685"
   offset="1"
   style="stop-color:#1d9676" />
                            </linearGradient>
                            <path
   id="path685"
   d="m 163.4,341.9 c 12.8,-26 28.1,-58.6 28.1,-58.6 l -8,-3.8 c 0,0 -39.8,91 -58,101.6 0,0 5.7,12.7 5.4,31.4 3.2,-20.9 20.6,-46.7 32.5,-70.6 z"
   style="fill:url(#SVGID_00000015324726814626930860000014605419683764647329_)" />
                            <linearGradient
   id="SVGID_00000133525356048157239760000014234797567193959052_"
   x1="-2744.5"
   x2="-3156.7"
   y1="176.89999"
   y2="-481.70001"
   gradientTransform="matrix(0.08992,0.0628,-0.06316,0.0894,408.4,571)"
   gradientUnits="userSpaceOnUse">
                                   <stop
   id="stop686"
   offset="0"
   style="stop-color:#ef4136" />
                                   <stop
   id="stop687"
   offset=".1"
   style="stop-color:#ed4a38" />
                                   <stop
   id="stop688"
   offset=".2"
   style="stop-color:#ea5e3d" />
                                   <stop
   id="stop689"
   offset=".3"
   style="stop-color:#e67a46" />
                                   <stop
   id="stop690"
   offset=".4"
   style="stop-color:#e19a54" />
                                   <stop
   id="stop691"
   offset=".5"
   style="stop-color:#d9c269" />
                                   <stop
   id="stop692"
   offset=".6"
   style="stop-color:#d2df78" />
                                   <stop
   id="stop693"
   offset="1"
   style="stop-color:#1d9676" />
                            </linearGradient>
                            <path
   id="path693"
   d="m 183.8,279.5 0.7,-2.2 -7.4,-6 c -4.2,9 -36.3,78 -41.7,92 -5.5,14.1 -9.8,17.7 -9.8,17.7 18.2,-10.5 58.2,-101.5 58.2,-101.5 z"
   style="fill:url(#SVGID_00000133525356048157239760000014234797567193959052_);stroke-width:1.00288" />
                     </g>
                     <linearGradient
   id="SVGID_00000172437538031625843420000008972534033907751858_"
   x1="-3265.3"
   x2="-3730.3"
   y1="-339.20001"
   y2="-867.09998"
   gradientTransform="matrix(0.0894,0.0628,-0.0628,0.0894,406.8,571)"
   gradientUnits="userSpaceOnUse">
                            <stop
   id="stop694"
   offset="0"
   style="stop-color:#ef4136" />
                            <stop
   id="stop695"
   offset=".1"
   style="stop-color:#ed4a38" />
                            <stop
   id="stop696"
   offset=".2"
   style="stop-color:#ea5e3d" />
                            <stop
   id="stop697"
   offset=".3"
   style="stop-color:#e67a46" />
                            <stop
   id="stop698"
   offset=".4"
   style="stop-color:#e19a54" />
                            <stop
   id="stop699"
   offset=".5"
   style="stop-color:#d9c269" />
                            <stop
   id="stop700"
   offset=".6"
   style="stop-color:#d2df78" />
                            <stop
   id="stop701"
   offset="1"
   style="stop-color:#1d9676" />
                     </linearGradient>
                     <path
   id="polygon701"
   d="m 129.9,271.6 2.9,-7.2 -8.5,4.4 z"
   style="fill:url(#SVGID_00000172437538031625843420000008972534033907751858_)" />
                     <g
   id="g717">
                            <linearGradient
   id="SVGID_00000178169920818067184780000012513356050912414909_"
   x1="-2867.51"
   x2="-3438.761"
   y1="410.15701"
   y2="-204.461"
   gradientTransform="matrix(0.09003,0.0628,-0.06324,0.0894,408.918,571)"
   gradientUnits="userSpaceOnUse">
                                   <stop
   id="stop702"
   offset="0"
   style="stop-color:#ef4136" />
                                   <stop
   id="stop703"
   offset=".1"
   style="stop-color:#ed4a38" />
                                   <stop
   id="stop704"
   offset=".2"
   style="stop-color:#ea5e3d" />
                                   <stop
   id="stop705"
   offset=".3"
   style="stop-color:#e67a46" />
                                   <stop
   id="stop706"
   offset=".4"
   style="stop-color:#e19a54" />
                                   <stop
   id="stop707"
   offset=".5"
   style="stop-color:#d9c269" />
                                   <stop
   id="stop708"
   offset=".6"
   style="stop-color:#d2df78" />
                                   <stop
   id="stop709"
   offset="1"
   style="stop-color:#1d9676" />
                            </linearGradient>
                            <path
   id="path709"
   d="m 126.147,489.2 c -1.51,-7.3 3.424,-50 4.43,-71.7 0,-1.6 0.202,-3.3 0.504,-5 0.202,-18.7 -5.337,-31.4 -5.337,-31.4 -19.536,-37.4 9.768,-105 9.768,-105 0,0 -35.245,57 -29.908,96.1 0.403,1.7 0.805,3.3 1.41,4.8 9.264,25.7 10.573,66.4 8.459,84.2 -2.216,17.7 -6.747,19 -8.761,25.6 -2.014,6.7 2.014,8.6 9.868,9.6 7.855,1 10.775,-1.7 9.668,-7.2 z"
   style="fill:url(#SVGID_00000178169920818067184780000012513356050912414909_);stroke-width:1.0035" />
                            <linearGradient
   id="SVGID_00000021815891140228487510000016626831102149117357_"
   x1="-3069"
   x2="-3647.1001"
   y1="229.2"
   y2="-627.79999"
   gradientTransform="matrix(0.09085,0.0628,-0.06382,0.0894,411.715,571)"
   gradientUnits="userSpaceOnUse">
                                   <stop
   id="stop710"
   offset="0"
   style="stop-color:#ef4136" />
                                   <stop
   id="stop711"
   offset=".1"
   style="stop-color:#ed4a38" />
                                   <stop
   id="stop712"
   offset=".2"
   style="stop-color:#ea5e3d" />
                                   <stop
   id="stop713"
   offset=".3"
   style="stop-color:#e67a46" />
                                   <stop
   id="stop714"
   offset=".4"
   style="stop-color:#e19a54" />
                                   <stop
   id="stop715"
   offset=".5"
   style="stop-color:#d9c269" />
                                   <stop
   id="stop716"
   offset=".6"
   style="stop-color:#d2df78" />
                                   <stop
   id="stop717"
   offset="1"
   style="stop-color:#1d9676" />
                            </linearGradient>
                            <path
   id="path717"
   d="m 130.322,271.6 -5.691,-2.8 c -12.805,27 -25.406,76.3 -19.004,103.4 -5.386,-39.1 30.182,-96.1 30.182,-96.1 z"
   style="fill:url(#SVGID_00000021815891140228487510000016626831102149117357_);stroke-width:1.00808" />
                     </g>
              </g>
       </g>
       <linearGradient
   id="SVGID_00000108302112832195346260000014655577987478097556_"
   x1="671.5"
   x2="395"
   y1="-414"
   y2="-434.1"
   gradientTransform="matrix(-0.4208,0.0953,0.0953,0.4208,339.38235,283.64808)"
   gradientUnits="userSpaceOnUse">
              <stop
   id="stop719"
   offset="0"
   style="stop-color:#ef4136" />
              <stop
   id="stop720"
   offset=".1"
   style="stop-color:#ed4a38" />
              <stop
   id="stop721"
   offset=".2"
   style="stop-color:#ea5e3d" />
              <stop
   id="stop722"
   offset=".3"
   style="stop-color:#e67a46" />
              <stop
   id="stop723"
   offset=".4"
   style="stop-color:#e19a54" />
              <stop
   id="stop724"
   offset=".5"
   style="stop-color:#d9c269" />
              <stop
   id="stop725"
   offset=".6"
   style="stop-color:#d2df78" />
              <stop
   id="stop726"
   offset="1"
   style="stop-color:#1d9676" />
       </linearGradient>
       <path
   id="path726"
   d="m 81.382354,144.44808 4.2,-4 c 0,0 2.9,16.8 2.8,20.6 l -4,4.2 c 0,0 3.6,-14.3 -3,-20.8 z"
   style="fill:url(#SVGID_00000108302112832195346260000014655577987478097556_)" />
       <text
   id="text727"
   x="105.6"
   y="234.8"
   sodipodi:insensitive="true">               <tspan
   id="tspan726"
   x="105.6"
   y="234.8"
   class="st82 st83"
   style="fill:#ef4136">Link</tspan>               <tspan
   id="tspan727"
   x="278.79999"
   y="234.8"
   class="st82 st83"
   style="fill:#219776">clump</tspan>       </text>
</svg>
